<mxfile host="app.diagrams.net" modified="2021-01-14T04:29:29.894Z" agent="5.0 (Macintosh; Intel Mac OS X 11_1_0) AppleWebKit/537.36 (KHTML, like Gecko) Chrome/87.0.4280.141 Safari/537.36" etag="X0Thhn6wrmeVEO4oCdOI" version="14.2.2" type="github">
  <diagram id="C5RBs43oDa-KdzZeNtuy" name="Page-1">
    <mxGraphModel dx="3231" dy="1077" grid="1" gridSize="10" guides="1" tooltips="1" connect="1" arrows="1" fold="1" page="1" pageScale="1" pageWidth="827" pageHeight="1169" math="0" shadow="0">
      <root>
        <mxCell id="WIyWlLk6GJQsqaUBKTNV-0" />
        <mxCell id="WIyWlLk6GJQsqaUBKTNV-1" parent="WIyWlLk6GJQsqaUBKTNV-0" />
        <mxCell id="rP0kursKjQXelINlSOQW-1" value="Domain" style="shape=folder;fontStyle=1;spacingTop=10;tabWidth=40;tabHeight=14;tabPosition=left;html=1;horizontal=1;verticalAlign=top;fillColor=#f5f5f5;strokeColor=#666666;fontColor=#333333;" parent="WIyWlLk6GJQsqaUBKTNV-1" vertex="1">
          <mxGeometry x="-840" y="610" width="2820" height="1380" as="geometry" />
        </mxCell>
        <mxCell id="LSt1L3LTANjzH6nGVOF3-1" value="Domain" style="shape=folder;fontStyle=1;spacingTop=10;tabWidth=40;tabHeight=14;tabPosition=left;html=1;horizontal=1;verticalAlign=top;fillColor=#dae8fc;strokeColor=#6c8ebf;" parent="WIyWlLk6GJQsqaUBKTNV-1" vertex="1">
          <mxGeometry x="413" y="660" width="1547" height="840" as="geometry" />
        </mxCell>
        <mxCell id="rP0kursKjQXelINlSOQW-18" value="Users" style="shape=folder;fontStyle=1;spacingTop=10;tabWidth=40;tabHeight=14;tabPosition=left;html=1;horizontal=1;verticalAlign=top;fillColor=#fff2cc;strokeColor=#d6b656;" parent="WIyWlLk6GJQsqaUBKTNV-1" vertex="1">
          <mxGeometry x="433" y="700" width="740" height="770" as="geometry" />
        </mxCell>
        <mxCell id="LSt1L3LTANjzH6nGVOF3-46" value="WebApplication" style="shape=folder;fontStyle=1;spacingTop=10;tabWidth=40;tabHeight=14;tabPosition=left;html=1;horizontal=1;verticalAlign=top;fillColor=#f5f5f5;strokeColor=#666666;fontColor=#333333;" parent="WIyWlLk6GJQsqaUBKTNV-1" vertex="1">
          <mxGeometry x="-1525" y="610" width="570" height="390" as="geometry" />
        </mxCell>
        <mxCell id="rP0kursKjQXelINlSOQW-2" value="controllers" style="shape=folder;fontStyle=1;spacingTop=10;tabWidth=40;tabHeight=14;tabPosition=left;html=1;horizontal=1;verticalAlign=top;fillColor=#dae8fc;strokeColor=#6c8ebf;" parent="WIyWlLk6GJQsqaUBKTNV-1" vertex="1">
          <mxGeometry x="-1435" y="690" width="390" height="270" as="geometry" />
        </mxCell>
        <mxCell id="LSt1L3LTANjzH6nGVOF3-133" value="ProductInfrastructure" style="shape=folder;fontStyle=1;spacingTop=10;tabWidth=40;tabHeight=14;tabPosition=left;html=1;horizontal=1;verticalAlign=top;fillColor=#dae8fc;strokeColor=#6c8ebf;" parent="WIyWlLk6GJQsqaUBKTNV-1" vertex="1">
          <mxGeometry x="413" y="1573.5" width="1547" height="346.5" as="geometry" />
        </mxCell>
        <mxCell id="LSt1L3LTANjzH6nGVOF3-130" value="InMemoryInfrastructure" style="shape=folder;fontStyle=1;spacingTop=10;tabWidth=40;tabHeight=14;tabPosition=left;html=1;horizontal=1;verticalAlign=top;fillColor=#dae8fc;strokeColor=#6c8ebf;" parent="WIyWlLk6GJQsqaUBKTNV-1" vertex="1">
          <mxGeometry x="-700" y="1572" width="350" height="359" as="geometry" />
        </mxCell>
        <mxCell id="LSt1L3LTANjzH6nGVOF3-69" value="Application" style="shape=folder;fontStyle=1;spacingTop=10;tabWidth=40;tabHeight=14;tabPosition=left;html=1;horizontal=1;verticalAlign=top;fillColor=#dae8fc;strokeColor=#6c8ebf;" parent="WIyWlLk6GJQsqaUBKTNV-1" vertex="1">
          <mxGeometry x="-780" y="660" width="920" height="720" as="geometry" />
        </mxCell>
        <mxCell id="LSt1L3LTANjzH6nGVOF3-10" value="User" style="swimlane;fontStyle=1;align=center;verticalAlign=top;childLayout=stackLayout;horizontal=1;startSize=26;horizontalStack=0;resizeParent=1;resizeParentMax=0;resizeLast=0;collapsible=1;marginBottom=0;" parent="WIyWlLk6GJQsqaUBKTNV-1" vertex="1">
          <mxGeometry x="503" y="740" width="250" height="242" as="geometry" />
        </mxCell>
        <mxCell id="LSt1L3LTANjzH6nGVOF3-11" value="- id : UserId" style="text;strokeColor=none;fillColor=none;align=left;verticalAlign=top;spacingLeft=4;spacingRight=4;overflow=hidden;rotatable=0;points=[[0,0.5],[1,0.5]];portConstraint=eastwest;" parent="LSt1L3LTANjzH6nGVOF3-10" vertex="1">
          <mxGeometry y="26" width="250" height="26" as="geometry" />
        </mxCell>
        <mxCell id="LSt1L3LTANjzH6nGVOF3-25" value="- name : FullName" style="text;strokeColor=none;fillColor=none;align=left;verticalAlign=top;spacingLeft=4;spacingRight=4;overflow=hidden;rotatable=0;points=[[0,0.5],[1,0.5]];portConstraint=eastwest;" parent="LSt1L3LTANjzH6nGVOF3-10" vertex="1">
          <mxGeometry y="52" width="250" height="26" as="geometry" />
        </mxCell>
        <mxCell id="LSt1L3LTANjzH6nGVOF3-56" value="- userName : UserName" style="text;strokeColor=none;fillColor=none;align=left;verticalAlign=top;spacingLeft=4;spacingRight=4;overflow=hidden;rotatable=0;points=[[0,0.5],[1,0.5]];portConstraint=eastwest;" parent="LSt1L3LTANjzH6nGVOF3-10" vertex="1">
          <mxGeometry y="78" width="250" height="26" as="geometry" />
        </mxCell>
        <mxCell id="LSt1L3LTANjzH6nGVOF3-12" value="" style="line;strokeWidth=1;fillColor=none;align=left;verticalAlign=middle;spacingTop=-1;spacingLeft=3;spacingRight=3;rotatable=0;labelPosition=right;points=[];portConstraint=eastwest;" parent="LSt1L3LTANjzH6nGVOF3-10" vertex="1">
          <mxGeometry y="104" width="250" height="8" as="geometry" />
        </mxCell>
        <mxCell id="LSt1L3LTANjzH6nGVOF3-13" value="+ changeUserName(UserName)" style="text;strokeColor=none;fillColor=none;align=left;verticalAlign=top;spacingLeft=4;spacingRight=4;overflow=hidden;rotatable=0;points=[[0,0.5],[1,0.5]];portConstraint=eastwest;" parent="LSt1L3LTANjzH6nGVOF3-10" vertex="1">
          <mxGeometry y="112" width="250" height="26" as="geometry" />
        </mxCell>
        <mxCell id="LSt1L3LTANjzH6nGVOF3-109" value="+ changeName(FullName)" style="text;strokeColor=none;fillColor=none;align=left;verticalAlign=top;spacingLeft=4;spacingRight=4;overflow=hidden;rotatable=0;points=[[0,0.5],[1,0.5]];portConstraint=eastwest;" parent="LSt1L3LTANjzH6nGVOF3-10" vertex="1">
          <mxGeometry y="138" width="250" height="26" as="geometry" />
        </mxCell>
        <mxCell id="rP0kursKjQXelINlSOQW-38" value="+ createCircle(ICircleFactoory) : Circle" style="text;strokeColor=none;fillColor=none;align=left;verticalAlign=top;spacingLeft=4;spacingRight=4;overflow=hidden;rotatable=0;points=[[0,0.5],[1,0.5]];portConstraint=eastwest;" parent="LSt1L3LTANjzH6nGVOF3-10" vertex="1">
          <mxGeometry y="164" width="250" height="26" as="geometry" />
        </mxCell>
        <mxCell id="rP0kursKjQXelINlSOQW-39" value="+ equals(User) : Boolean" style="text;strokeColor=none;fillColor=none;align=left;verticalAlign=top;spacingLeft=4;spacingRight=4;overflow=hidden;rotatable=0;points=[[0,0.5],[1,0.5]];portConstraint=eastwest;" parent="LSt1L3LTANjzH6nGVOF3-10" vertex="1">
          <mxGeometry y="190" width="250" height="26" as="geometry" />
        </mxCell>
        <mxCell id="rP0kursKjQXelINlSOQW-40" value="+ getHashCode() : Int" style="text;strokeColor=none;fillColor=none;align=left;verticalAlign=top;spacingLeft=4;spacingRight=4;overflow=hidden;rotatable=0;points=[[0,0.5],[1,0.5]];portConstraint=eastwest;" parent="LSt1L3LTANjzH6nGVOF3-10" vertex="1">
          <mxGeometry y="216" width="250" height="26" as="geometry" />
        </mxCell>
        <mxCell id="LSt1L3LTANjzH6nGVOF3-14" value="UserId" style="swimlane;fontStyle=1;align=center;verticalAlign=top;childLayout=stackLayout;horizontal=1;startSize=26;horizontalStack=0;resizeParent=1;resizeParentMax=0;resizeLast=0;collapsible=1;marginBottom=0;" parent="WIyWlLk6GJQsqaUBKTNV-1" vertex="1">
          <mxGeometry x="846" y="740" width="247" height="112" as="geometry" />
        </mxCell>
        <mxCell id="LSt1L3LTANjzH6nGVOF3-15" value="+ id : String" style="text;strokeColor=none;fillColor=none;align=left;verticalAlign=top;spacingLeft=4;spacingRight=4;overflow=hidden;rotatable=0;points=[[0,0.5],[1,0.5]];portConstraint=eastwest;" parent="LSt1L3LTANjzH6nGVOF3-14" vertex="1">
          <mxGeometry y="26" width="247" height="26" as="geometry" />
        </mxCell>
        <mxCell id="LSt1L3LTANjzH6nGVOF3-16" value="" style="line;strokeWidth=1;fillColor=none;align=left;verticalAlign=middle;spacingTop=-1;spacingLeft=3;spacingRight=3;rotatable=0;labelPosition=right;points=[];portConstraint=eastwest;" parent="LSt1L3LTANjzH6nGVOF3-14" vertex="1">
          <mxGeometry y="52" width="247" height="8" as="geometry" />
        </mxCell>
        <mxCell id="LSt1L3LTANjzH6nGVOF3-17" value="+ equals(UserId)Â  : Boolean" style="text;strokeColor=none;fillColor=none;align=left;verticalAlign=top;spacingLeft=4;spacingRight=4;overflow=hidden;rotatable=0;points=[[0,0.5],[1,0.5]];portConstraint=eastwest;" parent="LSt1L3LTANjzH6nGVOF3-14" vertex="1">
          <mxGeometry y="60" width="247" height="26" as="geometry" />
        </mxCell>
        <mxCell id="LSt1L3LTANjzH6nGVOF3-24" value="+ getHashCode() : Int" style="text;strokeColor=none;fillColor=none;align=left;verticalAlign=top;spacingLeft=4;spacingRight=4;overflow=hidden;rotatable=0;points=[[0,0.5],[1,0.5]];portConstraint=eastwest;" parent="LSt1L3LTANjzH6nGVOF3-14" vertex="1">
          <mxGeometry y="86" width="247" height="26" as="geometry" />
        </mxCell>
        <mxCell id="LSt1L3LTANjzH6nGVOF3-28" value="UserService" style="swimlane;fontStyle=1;align=center;verticalAlign=top;childLayout=stackLayout;horizontal=1;startSize=26;horizontalStack=0;resizeParent=1;resizeParentMax=0;resizeLast=0;collapsible=1;marginBottom=0;" parent="WIyWlLk6GJQsqaUBKTNV-1" vertex="1">
          <mxGeometry x="503" y="1124" width="250" height="86" as="geometry" />
        </mxCell>
        <mxCell id="LSt1L3LTANjzH6nGVOF3-37" value="- userUepository : IUserRepository" style="text;strokeColor=none;fillColor=none;align=left;verticalAlign=top;spacingLeft=4;spacingRight=4;overflow=hidden;rotatable=0;points=[[0,0.5],[1,0.5]];portConstraint=eastwest;" parent="LSt1L3LTANjzH6nGVOF3-28" vertex="1">
          <mxGeometry y="26" width="250" height="26" as="geometry" />
        </mxCell>
        <mxCell id="LSt1L3LTANjzH6nGVOF3-30" value="" style="line;strokeWidth=1;fillColor=none;align=left;verticalAlign=middle;spacingTop=-1;spacingLeft=3;spacingRight=3;rotatable=0;labelPosition=right;points=[];portConstraint=eastwest;" parent="LSt1L3LTANjzH6nGVOF3-28" vertex="1">
          <mxGeometry y="52" width="250" height="8" as="geometry" />
        </mxCell>
        <mxCell id="LSt1L3LTANjzH6nGVOF3-31" value="+ isDuplicated(User)Â  : Boolean" style="text;strokeColor=none;fillColor=none;align=left;verticalAlign=top;spacingLeft=4;spacingRight=4;overflow=hidden;rotatable=0;points=[[0,0.5],[1,0.5]];portConstraint=eastwest;" parent="LSt1L3LTANjzH6nGVOF3-28" vertex="1">
          <mxGeometry y="60" width="250" height="26" as="geometry" />
        </mxCell>
        <mxCell id="LSt1L3LTANjzH6nGVOF3-39" value="IUserRepository" style="swimlane;fontStyle=1;align=center;verticalAlign=top;childLayout=stackLayout;horizontal=1;startSize=26;horizontalStack=0;resizeParent=1;resizeParentMax=0;resizeLast=0;collapsible=1;marginBottom=0;fillColor=#f8cecc;strokeColor=#b85450;" parent="WIyWlLk6GJQsqaUBKTNV-1" vertex="1">
          <mxGeometry x="503" y="1290" width="250" height="164" as="geometry" />
        </mxCell>
        <mxCell id="LSt1L3LTANjzH6nGVOF3-40" value="" style="line;strokeWidth=1;fillColor=none;align=left;verticalAlign=middle;spacingTop=-1;spacingLeft=3;spacingRight=3;rotatable=0;labelPosition=right;points=[];portConstraint=eastwest;" parent="LSt1L3LTANjzH6nGVOF3-39" vertex="1">
          <mxGeometry y="26" width="250" height="8" as="geometry" />
        </mxCell>
        <mxCell id="LSt1L3LTANjzH6nGVOF3-42" value="+ find(userId) : User" style="text;strokeColor=none;fillColor=none;align=left;verticalAlign=top;spacingLeft=4;spacingRight=4;overflow=hidden;rotatable=0;points=[[0,0.5],[1,0.5]];portConstraint=eastwest;" parent="LSt1L3LTANjzH6nGVOF3-39" vertex="1">
          <mxGeometry y="34" width="250" height="26" as="geometry" />
        </mxCell>
        <mxCell id="LSt1L3LTANjzH6nGVOF3-138" value="+ find(userName) : User" style="text;strokeColor=none;fillColor=none;align=left;verticalAlign=top;spacingLeft=4;spacingRight=4;overflow=hidden;rotatable=0;points=[[0,0.5],[1,0.5]];portConstraint=eastwest;" parent="LSt1L3LTANjzH6nGVOF3-39" vertex="1">
          <mxGeometry y="60" width="250" height="26" as="geometry" />
        </mxCell>
        <mxCell id="LSt1L3LTANjzH6nGVOF3-139" value="+ findAll() : List&lt;User&gt;" style="text;strokeColor=none;fillColor=none;align=left;verticalAlign=top;spacingLeft=4;spacingRight=4;overflow=hidden;rotatable=0;points=[[0,0.5],[1,0.5]];portConstraint=eastwest;" parent="LSt1L3LTANjzH6nGVOF3-39" vertex="1">
          <mxGeometry y="86" width="250" height="26" as="geometry" />
        </mxCell>
        <mxCell id="LSt1L3LTANjzH6nGVOF3-41" value="+ save(User)Â " style="text;strokeColor=none;fillColor=none;align=left;verticalAlign=top;spacingLeft=4;spacingRight=4;overflow=hidden;rotatable=0;points=[[0,0.5],[1,0.5]];portConstraint=eastwest;" parent="LSt1L3LTANjzH6nGVOF3-39" vertex="1">
          <mxGeometry y="112" width="250" height="26" as="geometry" />
        </mxCell>
        <mxCell id="LSt1L3LTANjzH6nGVOF3-140" value="+ remove(User)Â " style="text;strokeColor=none;fillColor=none;align=left;verticalAlign=top;spacingLeft=4;spacingRight=4;overflow=hidden;rotatable=0;points=[[0,0.5],[1,0.5]];portConstraint=eastwest;" parent="LSt1L3LTANjzH6nGVOF3-39" vertex="1">
          <mxGeometry y="138" width="250" height="26" as="geometry" />
        </mxCell>
        <mxCell id="LSt1L3LTANjzH6nGVOF3-51" value="UserName" style="swimlane;fontStyle=1;align=center;verticalAlign=top;childLayout=stackLayout;horizontal=1;startSize=26;horizontalStack=0;resizeParent=1;resizeParentMax=0;resizeLast=0;collapsible=1;marginBottom=0;" parent="WIyWlLk6GJQsqaUBKTNV-1" vertex="1">
          <mxGeometry x="846" y="874" width="247" height="112" as="geometry" />
        </mxCell>
        <mxCell id="LSt1L3LTANjzH6nGVOF3-52" value="- name : String" style="text;strokeColor=none;fillColor=none;align=left;verticalAlign=top;spacingLeft=4;spacingRight=4;overflow=hidden;rotatable=0;points=[[0,0.5],[1,0.5]];portConstraint=eastwest;" parent="LSt1L3LTANjzH6nGVOF3-51" vertex="1">
          <mxGeometry y="26" width="247" height="26" as="geometry" />
        </mxCell>
        <mxCell id="LSt1L3LTANjzH6nGVOF3-53" value="" style="line;strokeWidth=1;fillColor=none;align=left;verticalAlign=middle;spacingTop=-1;spacingLeft=3;spacingRight=3;rotatable=0;labelPosition=right;points=[];portConstraint=eastwest;" parent="LSt1L3LTANjzH6nGVOF3-51" vertex="1">
          <mxGeometry y="52" width="247" height="8" as="geometry" />
        </mxCell>
        <mxCell id="LSt1L3LTANjzH6nGVOF3-6" value="+ equals(UserName) : Boolean" style="text;strokeColor=none;fillColor=none;align=left;verticalAlign=top;spacingLeft=4;spacingRight=4;overflow=hidden;rotatable=0;points=[[0,0.5],[1,0.5]];portConstraint=eastwest;" parent="LSt1L3LTANjzH6nGVOF3-51" vertex="1">
          <mxGeometry y="60" width="247" height="26" as="geometry" />
        </mxCell>
        <mxCell id="rP0kursKjQXelINlSOQW-41" value="+ getHashCode() : Int" style="text;strokeColor=none;fillColor=none;align=left;verticalAlign=top;spacingLeft=4;spacingRight=4;overflow=hidden;rotatable=0;points=[[0,0.5],[1,0.5]];portConstraint=eastwest;" parent="LSt1L3LTANjzH6nGVOF3-51" vertex="1">
          <mxGeometry y="86" width="247" height="26" as="geometry" />
        </mxCell>
        <mxCell id="LSt1L3LTANjzH6nGVOF3-70" value="UserApplicationService" style="swimlane;fontStyle=1;align=center;verticalAlign=top;childLayout=stackLayout;horizontal=1;startSize=26;horizontalStack=0;resizeParent=1;resizeParentMax=0;resizeLast=0;collapsible=1;marginBottom=0;" parent="WIyWlLk6GJQsqaUBKTNV-1" vertex="1">
          <mxGeometry x="-700" y="737" width="340" height="242" as="geometry" />
        </mxCell>
        <mxCell id="LSt1L3LTANjzH6nGVOF3-72" value="- userRepository : IUserRepository" style="text;strokeColor=none;fillColor=none;align=left;verticalAlign=top;spacingLeft=4;spacingRight=4;overflow=hidden;rotatable=0;points=[[0,0.5],[1,0.5]];portConstraint=eastwest;" parent="LSt1L3LTANjzH6nGVOF3-70" vertex="1">
          <mxGeometry y="26" width="340" height="26" as="geometry" />
        </mxCell>
        <mxCell id="rP0kursKjQXelINlSOQW-0" value="- userFactory : IUserFactory" style="text;strokeColor=none;fillColor=none;align=left;verticalAlign=top;spacingLeft=4;spacingRight=4;overflow=hidden;rotatable=0;points=[[0,0.5],[1,0.5]];portConstraint=eastwest;" parent="LSt1L3LTANjzH6nGVOF3-70" vertex="1">
          <mxGeometry y="52" width="340" height="26" as="geometry" />
        </mxCell>
        <mxCell id="LSt1L3LTANjzH6nGVOF3-71" value="- userService : UserService" style="text;strokeColor=none;fillColor=none;align=left;verticalAlign=top;spacingLeft=4;spacingRight=4;overflow=hidden;rotatable=0;points=[[0,0.5],[1,0.5]];portConstraint=eastwest;" parent="LSt1L3LTANjzH6nGVOF3-70" vertex="1">
          <mxGeometry y="78" width="340" height="26" as="geometry" />
        </mxCell>
        <mxCell id="LSt1L3LTANjzH6nGVOF3-73" value="" style="line;strokeWidth=1;fillColor=none;align=left;verticalAlign=middle;spacingTop=-1;spacingLeft=3;spacingRight=3;rotatable=0;labelPosition=right;points=[];portConstraint=eastwest;" parent="LSt1L3LTANjzH6nGVOF3-70" vertex="1">
          <mxGeometry y="104" width="340" height="8" as="geometry" />
        </mxCell>
        <mxCell id="LSt1L3LTANjzH6nGVOF3-74" value="+ registerUser(userName, firstName, familyName)" style="text;strokeColor=none;fillColor=none;align=left;verticalAlign=top;spacingLeft=4;spacingRight=4;overflow=hidden;rotatable=0;points=[[0,0.5],[1,0.5]];portConstraint=eastwest;" parent="LSt1L3LTANjzH6nGVOF3-70" vertex="1">
          <mxGeometry y="112" width="340" height="26" as="geometry" />
        </mxCell>
        <mxCell id="LSt1L3LTANjzH6nGVOF3-122" value="+ changeUserInfo(userId, userName, firstName, familyName)" style="text;strokeColor=none;fillColor=none;align=left;verticalAlign=top;spacingLeft=4;spacingRight=4;overflow=hidden;rotatable=0;points=[[0,0.5],[1,0.5]];portConstraint=eastwest;" parent="LSt1L3LTANjzH6nGVOF3-70" vertex="1">
          <mxGeometry y="138" width="340" height="26" as="geometry" />
        </mxCell>
        <mxCell id="LSt1L3LTANjzH6nGVOF3-123" value="+ removeUser(userId)" style="text;strokeColor=none;fillColor=none;align=left;verticalAlign=top;spacingLeft=4;spacingRight=4;overflow=hidden;rotatable=0;points=[[0,0.5],[1,0.5]];portConstraint=eastwest;" parent="LSt1L3LTANjzH6nGVOF3-70" vertex="1">
          <mxGeometry y="164" width="340" height="26" as="geometry" />
        </mxCell>
        <mxCell id="LSt1L3LTANjzH6nGVOF3-124" value="+ getUserInfo(userId) : User" style="text;strokeColor=none;fillColor=none;align=left;verticalAlign=top;spacingLeft=4;spacingRight=4;overflow=hidden;rotatable=0;points=[[0,0.5],[1,0.5]];portConstraint=eastwest;" parent="LSt1L3LTANjzH6nGVOF3-70" vertex="1">
          <mxGeometry y="190" width="340" height="26" as="geometry" />
        </mxCell>
        <mxCell id="LSt1L3LTANjzH6nGVOF3-125" value="+ getUserList() : List&lt;User&gt;" style="text;strokeColor=none;fillColor=none;align=left;verticalAlign=top;spacingLeft=4;spacingRight=4;overflow=hidden;rotatable=0;points=[[0,0.5],[1,0.5]];portConstraint=eastwest;" parent="LSt1L3LTANjzH6nGVOF3-70" vertex="1">
          <mxGeometry y="216" width="340" height="26" as="geometry" />
        </mxCell>
        <mxCell id="LSt1L3LTANjzH6nGVOF3-75" value="Use" style="endArrow=open;endSize=12;dashed=1;html=1;exitX=1;exitY=0.5;exitDx=0;exitDy=0;entryX=0;entryY=0.5;entryDx=0;entryDy=0;" parent="WIyWlLk6GJQsqaUBKTNV-1" source="LSt1L3LTANjzH6nGVOF3-50" target="LSt1L3LTANjzH6nGVOF3-72" edge="1">
          <mxGeometry width="160" relative="1" as="geometry">
            <mxPoint x="-620" y="980" as="sourcePoint" />
            <mxPoint x="-430" y="776" as="targetPoint" />
          </mxGeometry>
        </mxCell>
        <mxCell id="LSt1L3LTANjzH6nGVOF3-77" value="IUserFactory" style="swimlane;fontStyle=1;align=center;verticalAlign=top;childLayout=stackLayout;horizontal=1;startSize=26;horizontalStack=0;resizeParent=1;resizeParentMax=0;resizeLast=0;collapsible=1;marginBottom=0;fillColor=#f8cecc;strokeColor=#b85450;" parent="WIyWlLk6GJQsqaUBKTNV-1" vertex="1">
          <mxGeometry x="846" y="1290" width="247" height="60" as="geometry" />
        </mxCell>
        <mxCell id="LSt1L3LTANjzH6nGVOF3-78" value="" style="line;strokeWidth=1;fillColor=none;align=left;verticalAlign=middle;spacingTop=-1;spacingLeft=3;spacingRight=3;rotatable=0;labelPosition=right;points=[];portConstraint=eastwest;" parent="LSt1L3LTANjzH6nGVOF3-77" vertex="1">
          <mxGeometry y="26" width="247" height="8" as="geometry" />
        </mxCell>
        <mxCell id="LSt1L3LTANjzH6nGVOF3-79" value="+ registerUser(UserName, FullName)Â " style="text;strokeColor=none;fillColor=none;align=left;verticalAlign=top;spacingLeft=4;spacingRight=4;overflow=hidden;rotatable=0;points=[[0,0.5],[1,0.5]];portConstraint=eastwest;" parent="LSt1L3LTANjzH6nGVOF3-77" vertex="1">
          <mxGeometry y="34" width="247" height="26" as="geometry" />
        </mxCell>
        <mxCell id="LSt1L3LTANjzH6nGVOF3-85" style="edgeStyle=elbowEdgeStyle;rounded=0;orthogonalLoop=1;jettySize=auto;elbow=vertical;html=1;exitX=0.75;exitY=0;exitDx=0;exitDy=0;" parent="WIyWlLk6GJQsqaUBKTNV-1" source="LSt1L3LTANjzH6nGVOF3-81" target="LSt1L3LTANjzH6nGVOF3-81" edge="1">
          <mxGeometry relative="1" as="geometry" />
        </mxCell>
        <mxCell id="LSt1L3LTANjzH6nGVOF3-126" value="" style="endArrow=open;html=1;endSize=12;startArrow=diamondThin;startSize=14;startFill=1;align=left;verticalAlign=bottom;exitX=1;exitY=0.5;exitDx=0;exitDy=0;entryX=-0.007;entryY=0.163;entryDx=0;entryDy=0;entryPerimeter=0;" parent="WIyWlLk6GJQsqaUBKTNV-1" source="LSt1L3LTANjzH6nGVOF3-11" target="LSt1L3LTANjzH6nGVOF3-14" edge="1">
          <mxGeometry x="-0.7342" y="15" relative="1" as="geometry">
            <mxPoint x="983" y="-752" as="sourcePoint" />
            <mxPoint x="1143" y="-752" as="targetPoint" />
            <mxPoint as="offset" />
          </mxGeometry>
        </mxCell>
        <mxCell id="LSt1L3LTANjzH6nGVOF3-127" value="" style="endArrow=open;html=1;endSize=12;startArrow=diamondThin;startSize=14;startFill=1;align=left;verticalAlign=bottom;exitX=1;exitY=0.5;exitDx=0;exitDy=0;entryX=0;entryY=0.15;entryDx=0;entryDy=0;entryPerimeter=0;" parent="WIyWlLk6GJQsqaUBKTNV-1" source="LSt1L3LTANjzH6nGVOF3-25" target="LSt1L3LTANjzH6nGVOF3-51" edge="1">
          <mxGeometry x="-0.7297" y="12" relative="1" as="geometry">
            <mxPoint x="803" y="-927" as="sourcePoint" />
            <mxPoint x="941.8799999999997" y="-1023.7439999999999" as="targetPoint" />
            <mxPoint as="offset" />
          </mxGeometry>
        </mxCell>
        <mxCell id="LSt1L3LTANjzH6nGVOF3-128" value="&lt;br&gt;" style="endArrow=open;html=1;endSize=12;startArrow=diamondThin;startSize=14;startFill=1;align=left;verticalAlign=bottom;exitX=1;exitY=0.5;exitDx=0;exitDy=0;entryX=-0.022;entryY=0.171;entryDx=0;entryDy=0;entryPerimeter=0;" parent="WIyWlLk6GJQsqaUBKTNV-1" source="LSt1L3LTANjzH6nGVOF3-56" target="LSt1L3LTANjzH6nGVOF3-3" edge="1">
          <mxGeometry x="-0.78" y="5" relative="1" as="geometry">
            <mxPoint x="803" y="-911.998" as="sourcePoint" />
            <mxPoint x="943" y="-899.0999999999999" as="targetPoint" />
            <mxPoint as="offset" />
          </mxGeometry>
        </mxCell>
        <mxCell id="LSt1L3LTANjzH6nGVOF3-47" value="UserController" style="swimlane;fontStyle=1;align=center;verticalAlign=top;childLayout=stackLayout;horizontal=1;startSize=26;horizontalStack=0;resizeParent=1;resizeParentMax=0;resizeLast=0;collapsible=1;marginBottom=0;" parent="WIyWlLk6GJQsqaUBKTNV-1" vertex="1">
          <mxGeometry x="-1415" y="737" width="340" height="190" as="geometry" />
        </mxCell>
        <mxCell id="LSt1L3LTANjzH6nGVOF3-50" value="- userApplicationService : UserApplicationService" style="text;align=left;verticalAlign=top;spacingLeft=4;spacingRight=4;overflow=hidden;rotatable=0;points=[[0,0.5],[1,0.5]];portConstraint=eastwest;" parent="LSt1L3LTANjzH6nGVOF3-47" vertex="1">
          <mxGeometry y="26" width="340" height="26" as="geometry" />
        </mxCell>
        <mxCell id="LSt1L3LTANjzH6nGVOF3-49" value="" style="line;strokeWidth=1;fillColor=none;align=left;verticalAlign=middle;spacingTop=-1;spacingLeft=3;spacingRight=3;rotatable=0;labelPosition=right;points=[];portConstraint=eastwest;" parent="LSt1L3LTANjzH6nGVOF3-47" vertex="1">
          <mxGeometry y="52" width="340" height="8" as="geometry" />
        </mxCell>
        <mxCell id="LSt1L3LTANjzH6nGVOF3-57" value="+ index() : List&lt;UserSummary&gt;" style="text;align=left;verticalAlign=top;spacingLeft=4;spacingRight=4;overflow=hidden;rotatable=0;points=[[0,0.5],[1,0.5]];portConstraint=eastwest;" parent="LSt1L3LTANjzH6nGVOF3-47" vertex="1">
          <mxGeometry y="60" width="340" height="26" as="geometry" />
        </mxCell>
        <mxCell id="LSt1L3LTANjzH6nGVOF3-117" value="+ register(userName, firstName, familyName)" style="text;align=left;verticalAlign=top;spacingLeft=4;spacingRight=4;overflow=hidden;rotatable=0;points=[[0,0.5],[1,0.5]];portConstraint=eastwest;" parent="LSt1L3LTANjzH6nGVOF3-47" vertex="1">
          <mxGeometry y="86" width="340" height="26" as="geometry" />
        </mxCell>
        <mxCell id="LSt1L3LTANjzH6nGVOF3-118" value="+ delete(userId)" style="text;align=left;verticalAlign=top;spacingLeft=4;spacingRight=4;overflow=hidden;rotatable=0;points=[[0,0.5],[1,0.5]];portConstraint=eastwest;" parent="LSt1L3LTANjzH6nGVOF3-47" vertex="1">
          <mxGeometry y="112" width="340" height="26" as="geometry" />
        </mxCell>
        <mxCell id="LSt1L3LTANjzH6nGVOF3-119" value="+ detail(userId) : User" style="text;align=left;verticalAlign=top;spacingLeft=4;spacingRight=4;overflow=hidden;rotatable=0;points=[[0,0.5],[1,0.5]];portConstraint=eastwest;" parent="LSt1L3LTANjzH6nGVOF3-47" vertex="1">
          <mxGeometry y="138" width="340" height="26" as="geometry" />
        </mxCell>
        <mxCell id="LSt1L3LTANjzH6nGVOF3-121" value="+ update(userId, userName, firstName, familyName) : User" style="text;align=left;verticalAlign=top;spacingLeft=4;spacingRight=4;overflow=hidden;rotatable=0;points=[[0,0.5],[1,0.5]];portConstraint=eastwest;" parent="LSt1L3LTANjzH6nGVOF3-47" vertex="1">
          <mxGeometry y="164" width="340" height="26" as="geometry" />
        </mxCell>
        <mxCell id="rP0kursKjQXelINlSOQW-3" value="Models" style="shape=folder;fontStyle=1;spacingTop=10;tabWidth=40;tabHeight=14;tabPosition=left;html=1;horizontal=1;verticalAlign=top;fillColor=#fff2cc;strokeColor=#d6b656;" parent="WIyWlLk6GJQsqaUBKTNV-1" vertex="1">
          <mxGeometry x="-760" y="1040" width="470" height="320" as="geometry" />
        </mxCell>
        <mxCell id="rP0kursKjQXelINlSOQW-4" value="FullNameModel" style="swimlane;fontStyle=1;align=center;verticalAlign=top;childLayout=stackLayout;horizontal=1;startSize=26;horizontalStack=0;resizeParent=1;resizeParentMax=0;resizeLast=0;collapsible=1;marginBottom=0;" parent="WIyWlLk6GJQsqaUBKTNV-1" vertex="1">
          <mxGeometry x="-730" y="1250" width="185" height="86" as="geometry" />
        </mxCell>
        <mxCell id="rP0kursKjQXelINlSOQW-32" value="+ firstName : String" style="text;strokeColor=none;fillColor=none;align=left;verticalAlign=top;spacingLeft=4;spacingRight=4;overflow=hidden;rotatable=0;points=[[0,0.5],[1,0.5]];portConstraint=eastwest;" parent="rP0kursKjQXelINlSOQW-4" vertex="1">
          <mxGeometry y="26" width="185" height="26" as="geometry" />
        </mxCell>
        <mxCell id="rP0kursKjQXelINlSOQW-33" value="+ familyName : String" style="text;strokeColor=none;fillColor=none;align=left;verticalAlign=top;spacingLeft=4;spacingRight=4;overflow=hidden;rotatable=0;points=[[0,0.5],[1,0.5]];portConstraint=eastwest;" parent="rP0kursKjQXelINlSOQW-4" vertex="1">
          <mxGeometry y="52" width="185" height="26" as="geometry" />
        </mxCell>
        <mxCell id="rP0kursKjQXelINlSOQW-8" value="" style="line;strokeWidth=1;fillColor=none;align=left;verticalAlign=middle;spacingTop=-1;spacingLeft=3;spacingRight=3;rotatable=0;labelPosition=right;points=[];portConstraint=eastwest;" parent="rP0kursKjQXelINlSOQW-4" vertex="1">
          <mxGeometry y="78" width="185" height="8" as="geometry" />
        </mxCell>
        <mxCell id="rP0kursKjQXelINlSOQW-14" value="UserModelModel" style="swimlane;fontStyle=1;align=center;verticalAlign=top;childLayout=stackLayout;horizontal=1;startSize=26;horizontalStack=0;resizeParent=1;resizeParentMax=0;resizeLast=0;collapsible=1;marginBottom=0;" parent="WIyWlLk6GJQsqaUBKTNV-1" vertex="1">
          <mxGeometry x="-730" y="1090" width="185" height="112" as="geometry" />
        </mxCell>
        <mxCell id="rP0kursKjQXelINlSOQW-29" value="+ id : String" style="text;strokeColor=none;fillColor=none;align=left;verticalAlign=top;spacingLeft=4;spacingRight=4;overflow=hidden;rotatable=0;points=[[0,0.5],[1,0.5]];portConstraint=eastwest;" parent="rP0kursKjQXelINlSOQW-14" vertex="1">
          <mxGeometry y="26" width="185" height="26" as="geometry" />
        </mxCell>
        <mxCell id="rP0kursKjQXelINlSOQW-30" value="+ userName : String" style="text;strokeColor=none;fillColor=none;align=left;verticalAlign=top;spacingLeft=4;spacingRight=4;overflow=hidden;rotatable=0;points=[[0,0.5],[1,0.5]];portConstraint=eastwest;" parent="rP0kursKjQXelINlSOQW-14" vertex="1">
          <mxGeometry y="52" width="185" height="26" as="geometry" />
        </mxCell>
        <mxCell id="rP0kursKjQXelINlSOQW-31" value="+ name : FullNameModel" style="text;strokeColor=none;fillColor=none;align=left;verticalAlign=top;spacingLeft=4;spacingRight=4;overflow=hidden;rotatable=0;points=[[0,0.5],[1,0.5]];portConstraint=eastwest;" parent="rP0kursKjQXelINlSOQW-14" vertex="1">
          <mxGeometry y="78" width="185" height="26" as="geometry" />
        </mxCell>
        <mxCell id="rP0kursKjQXelINlSOQW-15" value="" style="line;strokeWidth=1;fillColor=none;align=left;verticalAlign=middle;spacingTop=-1;spacingLeft=3;spacingRight=3;rotatable=0;labelPosition=right;points=[];portConstraint=eastwest;" parent="rP0kursKjQXelINlSOQW-14" vertex="1">
          <mxGeometry y="104" width="185" height="8" as="geometry" />
        </mxCell>
        <mxCell id="rP0kursKjQXelINlSOQW-16" value="UserSummaryModel" style="swimlane;fontStyle=1;align=center;verticalAlign=top;childLayout=stackLayout;horizontal=1;startSize=26;horizontalStack=0;resizeParent=1;resizeParentMax=0;resizeLast=0;collapsible=1;marginBottom=0;" parent="WIyWlLk6GJQsqaUBKTNV-1" vertex="1">
          <mxGeometry x="-499.5" y="1090" width="185" height="86" as="geometry" />
        </mxCell>
        <mxCell id="rP0kursKjQXelINlSOQW-34" value="+ id : String" style="text;strokeColor=none;fillColor=none;align=left;verticalAlign=top;spacingLeft=4;spacingRight=4;overflow=hidden;rotatable=0;points=[[0,0.5],[1,0.5]];portConstraint=eastwest;" parent="rP0kursKjQXelINlSOQW-16" vertex="1">
          <mxGeometry y="26" width="185" height="26" as="geometry" />
        </mxCell>
        <mxCell id="rP0kursKjQXelINlSOQW-35" value="+ userName : String" style="text;strokeColor=none;fillColor=none;align=left;verticalAlign=top;spacingLeft=4;spacingRight=4;overflow=hidden;rotatable=0;points=[[0,0.5],[1,0.5]];portConstraint=eastwest;" parent="rP0kursKjQXelINlSOQW-16" vertex="1">
          <mxGeometry y="52" width="185" height="26" as="geometry" />
        </mxCell>
        <mxCell id="rP0kursKjQXelINlSOQW-17" value="" style="line;strokeWidth=1;fillColor=none;align=left;verticalAlign=middle;spacingTop=-1;spacingLeft=3;spacingRight=3;rotatable=0;labelPosition=right;points=[];portConstraint=eastwest;" parent="rP0kursKjQXelINlSOQW-16" vertex="1">
          <mxGeometry y="78" width="185" height="8" as="geometry" />
        </mxCell>
        <mxCell id="LSt1L3LTANjzH6nGVOF3-3" value="FullName" style="swimlane;fontStyle=1;align=center;verticalAlign=top;childLayout=stackLayout;horizontal=1;startSize=26;horizontalStack=0;resizeParent=1;resizeParentMax=0;resizeLast=0;collapsible=1;marginBottom=0;" parent="WIyWlLk6GJQsqaUBKTNV-1" vertex="1">
          <mxGeometry x="846" y="1004" width="247" height="138" as="geometry" />
        </mxCell>
        <mxCell id="LSt1L3LTANjzH6nGVOF3-4" value="- firstName : String" style="text;strokeColor=none;fillColor=none;align=left;verticalAlign=top;spacingLeft=4;spacingRight=4;overflow=hidden;rotatable=0;points=[[0,0.5],[1,0.5]];portConstraint=eastwest;" parent="LSt1L3LTANjzH6nGVOF3-3" vertex="1">
          <mxGeometry y="26" width="247" height="26" as="geometry" />
        </mxCell>
        <mxCell id="LSt1L3LTANjzH6nGVOF3-26" value="- familyName : String" style="text;strokeColor=none;fillColor=none;align=left;verticalAlign=top;spacingLeft=4;spacingRight=4;overflow=hidden;rotatable=0;points=[[0,0.5],[1,0.5]];portConstraint=eastwest;" parent="LSt1L3LTANjzH6nGVOF3-3" vertex="1">
          <mxGeometry y="52" width="247" height="26" as="geometry" />
        </mxCell>
        <mxCell id="LSt1L3LTANjzH6nGVOF3-5" value="" style="line;strokeWidth=1;fillColor=none;align=left;verticalAlign=middle;spacingTop=-1;spacingLeft=3;spacingRight=3;rotatable=0;labelPosition=right;points=[];portConstraint=eastwest;" parent="LSt1L3LTANjzH6nGVOF3-3" vertex="1">
          <mxGeometry y="78" width="247" height="8" as="geometry" />
        </mxCell>
        <mxCell id="rP0kursKjQXelINlSOQW-43" value="+ equals(FullName) : Boolean" style="text;strokeColor=none;fillColor=none;align=left;verticalAlign=top;spacingLeft=4;spacingRight=4;overflow=hidden;rotatable=0;points=[[0,0.5],[1,0.5]];portConstraint=eastwest;" parent="LSt1L3LTANjzH6nGVOF3-3" vertex="1">
          <mxGeometry y="86" width="247" height="26" as="geometry" />
        </mxCell>
        <mxCell id="rP0kursKjQXelINlSOQW-44" value="+ getHashCode() : Int" style="text;strokeColor=none;fillColor=none;align=left;verticalAlign=top;spacingLeft=4;spacingRight=4;overflow=hidden;rotatable=0;points=[[0,0.5],[1,0.5]];portConstraint=eastwest;" parent="LSt1L3LTANjzH6nGVOF3-3" vertex="1">
          <mxGeometry y="112" width="247" height="26" as="geometry" />
        </mxCell>
        <mxCell id="rP0kursKjQXelINlSOQW-22" value="Users" style="shape=folder;fontStyle=1;spacingTop=10;tabWidth=40;tabHeight=14;tabPosition=left;html=1;horizontal=1;verticalAlign=top;fillColor=#fff2cc;strokeColor=#d6b656;" parent="WIyWlLk6GJQsqaUBKTNV-1" vertex="1">
          <mxGeometry x="-670" y="1621" width="290" height="290" as="geometry" />
        </mxCell>
        <mxCell id="LSt1L3LTANjzH6nGVOF3-58" value="InMemoryUserRepository" style="swimlane;fontStyle=1;align=center;verticalAlign=top;childLayout=stackLayout;horizontal=1;startSize=26;horizontalStack=0;resizeParent=1;resizeParentMax=0;resizeLast=0;collapsible=1;marginBottom=0;" parent="WIyWlLk6GJQsqaUBKTNV-1" vertex="1">
          <mxGeometry x="-650" y="1664" width="250" height="216" as="geometry" />
        </mxCell>
        <mxCell id="LSt1L3LTANjzH6nGVOF3-60" value="- data : Dictionary&lt;String, User&gt;" style="text;strokeColor=none;fillColor=none;align=left;verticalAlign=top;spacingLeft=4;spacingRight=4;overflow=hidden;rotatable=0;points=[[0,0.5],[1,0.5]];portConstraint=eastwest;" parent="LSt1L3LTANjzH6nGVOF3-58" vertex="1">
          <mxGeometry y="26" width="250" height="26" as="geometry" />
        </mxCell>
        <mxCell id="LSt1L3LTANjzH6nGVOF3-59" value="" style="line;strokeWidth=1;fillColor=none;align=left;verticalAlign=middle;spacingTop=-1;spacingLeft=3;spacingRight=3;rotatable=0;labelPosition=right;points=[];portConstraint=eastwest;" parent="LSt1L3LTANjzH6nGVOF3-58" vertex="1">
          <mxGeometry y="52" width="250" height="8" as="geometry" />
        </mxCell>
        <mxCell id="LSt1L3LTANjzH6nGVOF3-61" value="+ find(UserId) : User" style="text;strokeColor=none;fillColor=none;align=left;verticalAlign=top;spacingLeft=4;spacingRight=4;overflow=hidden;rotatable=0;points=[[0,0.5],[1,0.5]];portConstraint=eastwest;" parent="LSt1L3LTANjzH6nGVOF3-58" vertex="1">
          <mxGeometry y="60" width="250" height="26" as="geometry" />
        </mxCell>
        <mxCell id="LSt1L3LTANjzH6nGVOF3-131" value="+ find(UserName) : User" style="text;strokeColor=none;fillColor=none;align=left;verticalAlign=top;spacingLeft=4;spacingRight=4;overflow=hidden;rotatable=0;points=[[0,0.5],[1,0.5]];portConstraint=eastwest;" parent="LSt1L3LTANjzH6nGVOF3-58" vertex="1">
          <mxGeometry y="86" width="250" height="26" as="geometry" />
        </mxCell>
        <mxCell id="LSt1L3LTANjzH6nGVOF3-63" value="+ findAll : List&lt;User&gt;" style="text;strokeColor=none;fillColor=none;align=left;verticalAlign=top;spacingLeft=4;spacingRight=4;overflow=hidden;rotatable=0;points=[[0,0.5],[1,0.5]];portConstraint=eastwest;" parent="LSt1L3LTANjzH6nGVOF3-58" vertex="1">
          <mxGeometry y="112" width="250" height="26" as="geometry" />
        </mxCell>
        <mxCell id="LSt1L3LTANjzH6nGVOF3-62" value="+ save(User)Â " style="text;strokeColor=none;fillColor=none;align=left;verticalAlign=top;spacingLeft=4;spacingRight=4;overflow=hidden;rotatable=0;points=[[0,0.5],[1,0.5]];portConstraint=eastwest;" parent="LSt1L3LTANjzH6nGVOF3-58" vertex="1">
          <mxGeometry y="138" width="250" height="26" as="geometry" />
        </mxCell>
        <mxCell id="LSt1L3LTANjzH6nGVOF3-132" value="+ remove(User)Â " style="text;strokeColor=none;fillColor=none;align=left;verticalAlign=top;spacingLeft=4;spacingRight=4;overflow=hidden;rotatable=0;points=[[0,0.5],[1,0.5]];portConstraint=eastwest;" parent="LSt1L3LTANjzH6nGVOF3-58" vertex="1">
          <mxGeometry y="164" width="250" height="26" as="geometry" />
        </mxCell>
        <mxCell id="LSt1L3LTANjzH6nGVOF3-64" value="- cloneUser(User) : User" style="text;strokeColor=none;fillColor=none;align=left;verticalAlign=top;spacingLeft=4;spacingRight=4;overflow=hidden;rotatable=0;points=[[0,0.5],[1,0.5]];portConstraint=eastwest;" parent="LSt1L3LTANjzH6nGVOF3-58" vertex="1">
          <mxGeometry y="190" width="250" height="26" as="geometry" />
        </mxCell>
        <mxCell id="rP0kursKjQXelINlSOQW-23" value="Users" style="shape=folder;fontStyle=1;spacingTop=10;tabWidth=40;tabHeight=14;tabPosition=left;html=1;horizontal=1;verticalAlign=top;fillColor=#fff2cc;strokeColor=#d6b656;" parent="WIyWlLk6GJQsqaUBKTNV-1" vertex="1">
          <mxGeometry x="433" y="1614" width="737" height="276" as="geometry" />
        </mxCell>
        <mxCell id="LSt1L3LTANjzH6nGVOF3-34" value="UserRepository" style="swimlane;fontStyle=1;align=center;verticalAlign=top;childLayout=stackLayout;horizontal=1;startSize=26;horizontalStack=0;resizeParent=1;resizeParentMax=0;resizeLast=0;collapsible=1;marginBottom=0;" parent="WIyWlLk6GJQsqaUBKTNV-1" vertex="1">
          <mxGeometry x="503" y="1664" width="250" height="164" as="geometry" />
        </mxCell>
        <mxCell id="LSt1L3LTANjzH6nGVOF3-35" value="" style="line;strokeWidth=1;fillColor=none;align=left;verticalAlign=middle;spacingTop=-1;spacingLeft=3;spacingRight=3;rotatable=0;labelPosition=right;points=[];portConstraint=eastwest;" parent="LSt1L3LTANjzH6nGVOF3-34" vertex="1">
          <mxGeometry y="26" width="250" height="8" as="geometry" />
        </mxCell>
        <mxCell id="LSt1L3LTANjzH6nGVOF3-145" value="+ remove(User)Â " style="text;strokeColor=none;fillColor=none;align=left;verticalAlign=top;spacingLeft=4;spacingRight=4;overflow=hidden;rotatable=0;points=[[0,0.5],[1,0.5]];portConstraint=eastwest;" parent="LSt1L3LTANjzH6nGVOF3-34" vertex="1">
          <mxGeometry y="34" width="250" height="26" as="geometry" />
        </mxCell>
        <mxCell id="LSt1L3LTANjzH6nGVOF3-144" value="+ save(User)Â " style="text;strokeColor=none;fillColor=none;align=left;verticalAlign=top;spacingLeft=4;spacingRight=4;overflow=hidden;rotatable=0;points=[[0,0.5],[1,0.5]];portConstraint=eastwest;" parent="LSt1L3LTANjzH6nGVOF3-34" vertex="1">
          <mxGeometry y="60" width="250" height="26" as="geometry" />
        </mxCell>
        <mxCell id="LSt1L3LTANjzH6nGVOF3-143" value="+ findAll() : List&lt;User&gt;" style="text;strokeColor=none;fillColor=none;align=left;verticalAlign=top;spacingLeft=4;spacingRight=4;overflow=hidden;rotatable=0;points=[[0,0.5],[1,0.5]];portConstraint=eastwest;" parent="LSt1L3LTANjzH6nGVOF3-34" vertex="1">
          <mxGeometry y="86" width="250" height="26" as="geometry" />
        </mxCell>
        <mxCell id="LSt1L3LTANjzH6nGVOF3-142" value="+ find(userName) : User" style="text;strokeColor=none;fillColor=none;align=left;verticalAlign=top;spacingLeft=4;spacingRight=4;overflow=hidden;rotatable=0;points=[[0,0.5],[1,0.5]];portConstraint=eastwest;" parent="LSt1L3LTANjzH6nGVOF3-34" vertex="1">
          <mxGeometry y="112" width="250" height="26" as="geometry" />
        </mxCell>
        <mxCell id="LSt1L3LTANjzH6nGVOF3-141" value="+ find(userId) : User" style="text;strokeColor=none;fillColor=none;align=left;verticalAlign=top;spacingLeft=4;spacingRight=4;overflow=hidden;rotatable=0;points=[[0,0.5],[1,0.5]];portConstraint=eastwest;" parent="LSt1L3LTANjzH6nGVOF3-34" vertex="1">
          <mxGeometry y="138" width="250" height="26" as="geometry" />
        </mxCell>
        <mxCell id="LSt1L3LTANjzH6nGVOF3-81" value="UserFactory" style="swimlane;fontStyle=1;align=center;verticalAlign=top;childLayout=stackLayout;horizontal=1;startSize=26;horizontalStack=0;resizeParent=1;resizeParentMax=0;resizeLast=0;collapsible=1;marginBottom=0;" parent="WIyWlLk6GJQsqaUBKTNV-1" vertex="1">
          <mxGeometry x="846" y="1664" width="247" height="60" as="geometry" />
        </mxCell>
        <mxCell id="LSt1L3LTANjzH6nGVOF3-82" value="" style="line;strokeWidth=1;fillColor=none;align=left;verticalAlign=middle;spacingTop=-1;spacingLeft=3;spacingRight=3;rotatable=0;labelPosition=right;points=[];portConstraint=eastwest;" parent="LSt1L3LTANjzH6nGVOF3-81" vertex="1">
          <mxGeometry y="26" width="247" height="8" as="geometry" />
        </mxCell>
        <mxCell id="LSt1L3LTANjzH6nGVOF3-83" value="+ registerUser(UserName, FullName)Â &#xa;" style="text;strokeColor=none;fillColor=none;align=left;verticalAlign=top;spacingLeft=4;spacingRight=4;overflow=hidden;rotatable=0;points=[[0,0.5],[1,0.5]];portConstraint=eastwest;" parent="LSt1L3LTANjzH6nGVOF3-81" vertex="1">
          <mxGeometry y="34" width="247" height="26" as="geometry" />
        </mxCell>
        <mxCell id="LSt1L3LTANjzH6nGVOF3-45" value="" style="endArrow=block;dashed=1;endFill=0;endSize=12;html=1;exitX=0.5;exitY=0;exitDx=0;exitDy=0;" parent="WIyWlLk6GJQsqaUBKTNV-1" source="LSt1L3LTANjzH6nGVOF3-34" edge="1">
          <mxGeometry width="160" relative="1" as="geometry">
            <mxPoint x="423" y="1185.5" as="sourcePoint" />
            <mxPoint x="628" y="1450" as="targetPoint" />
          </mxGeometry>
        </mxCell>
        <mxCell id="LSt1L3LTANjzH6nGVOF3-84" value="" style="endArrow=block;dashed=1;endFill=0;endSize=12;html=1;exitX=0.5;exitY=0;exitDx=0;exitDy=0;" parent="WIyWlLk6GJQsqaUBKTNV-1" source="LSt1L3LTANjzH6nGVOF3-81" target="LSt1L3LTANjzH6nGVOF3-79" edge="1">
          <mxGeometry width="160" relative="1" as="geometry">
            <mxPoint x="1083" y="1390" as="sourcePoint" />
            <mxPoint x="1180.8160919540232" y="1316" as="targetPoint" />
          </mxGeometry>
        </mxCell>
        <mxCell id="rP0kursKjQXelINlSOQW-28" value="" style="endArrow=open;html=1;endSize=12;startArrow=diamondThin;startSize=14;startFill=1;align=left;verticalAlign=bottom;exitX=0.5;exitY=1;exitDx=0;exitDy=0;entryX=0.5;entryY=0;entryDx=0;entryDy=0;" parent="WIyWlLk6GJQsqaUBKTNV-1" source="rP0kursKjQXelINlSOQW-14" target="rP0kursKjQXelINlSOQW-4" edge="1">
          <mxGeometry x="-0.7342" y="15" relative="1" as="geometry">
            <mxPoint x="150" y="883" as="sourcePoint" />
            <mxPoint x="241.55100000000039" y="786.2560000000001" as="targetPoint" />
            <mxPoint as="offset" />
          </mxGeometry>
        </mxCell>
        <mxCell id="rP0kursKjQXelINlSOQW-36" value="Use" style="endArrow=open;endSize=12;dashed=1;html=1;entryX=0.5;entryY=0;entryDx=0;entryDy=0;" parent="WIyWlLk6GJQsqaUBKTNV-1" target="rP0kursKjQXelINlSOQW-14" edge="1">
          <mxGeometry width="160" relative="1" as="geometry">
            <mxPoint x="-520" y="978" as="sourcePoint" />
            <mxPoint x="-99.25" y="1146.384" as="targetPoint" />
          </mxGeometry>
        </mxCell>
        <mxCell id="rP0kursKjQXelINlSOQW-37" value="Use" style="endArrow=open;endSize=12;dashed=1;html=1;entryX=0.5;entryY=0;entryDx=0;entryDy=0;exitX=0.531;exitY=1.218;exitDx=0;exitDy=0;exitPerimeter=0;" parent="WIyWlLk6GJQsqaUBKTNV-1" source="LSt1L3LTANjzH6nGVOF3-125" target="rP0kursKjQXelINlSOQW-16" edge="1">
          <mxGeometry width="160" relative="1" as="geometry">
            <mxPoint x="-510" y="988" as="sourcePoint" />
            <mxPoint x="-572.5" y="1100" as="targetPoint" />
          </mxGeometry>
        </mxCell>
        <mxCell id="LSt1L3LTANjzH6nGVOF3-68" value="" style="endArrow=block;dashed=1;endFill=0;endSize=12;html=1;exitX=0.5;exitY=0;exitDx=0;exitDy=0;entryX=0.277;entryY=1.005;entryDx=0;entryDy=0;entryPerimeter=0;edgeStyle=orthogonalEdgeStyle;" parent="WIyWlLk6GJQsqaUBKTNV-1" source="LSt1L3LTANjzH6nGVOF3-58" target="LSt1L3LTANjzH6nGVOF3-140" edge="1">
          <mxGeometry width="160" relative="1" as="geometry">
            <mxPoint x="120" y="1295.5" as="sourcePoint" />
            <mxPoint x="230" y="1212.5" as="targetPoint" />
          </mxGeometry>
        </mxCell>
        <mxCell id="AobNAXwscba2vag_p0f0-0" value="CircleApplicationService" style="swimlane;fontStyle=1;align=center;verticalAlign=top;childLayout=stackLayout;horizontal=1;startSize=26;horizontalStack=0;resizeParent=1;resizeParentMax=0;resizeLast=0;collapsible=1;marginBottom=0;" vertex="1" parent="WIyWlLk6GJQsqaUBKTNV-1">
          <mxGeometry x="-230" y="740" width="340" height="164" as="geometry" />
        </mxCell>
        <mxCell id="AobNAXwscba2vag_p0f0-2" value="- circleFactory : ICircleFactory" style="text;strokeColor=none;fillColor=none;align=left;verticalAlign=top;spacingLeft=4;spacingRight=4;overflow=hidden;rotatable=0;points=[[0,0.5],[1,0.5]];portConstraint=eastwest;" vertex="1" parent="AobNAXwscba2vag_p0f0-0">
          <mxGeometry y="26" width="340" height="26" as="geometry" />
        </mxCell>
        <mxCell id="AobNAXwscba2vag_p0f0-1" value="- circleRepository : ICircleRepository" style="text;strokeColor=none;fillColor=none;align=left;verticalAlign=top;spacingLeft=4;spacingRight=4;overflow=hidden;rotatable=0;points=[[0,0.5],[1,0.5]];portConstraint=eastwest;" vertex="1" parent="AobNAXwscba2vag_p0f0-0">
          <mxGeometry y="52" width="340" height="26" as="geometry" />
        </mxCell>
        <mxCell id="AobNAXwscba2vag_p0f0-3" value="- userRepository : IUserRepository" style="text;strokeColor=none;fillColor=none;align=left;verticalAlign=top;spacingLeft=4;spacingRight=4;overflow=hidden;rotatable=0;points=[[0,0.5],[1,0.5]];portConstraint=eastwest;" vertex="1" parent="AobNAXwscba2vag_p0f0-0">
          <mxGeometry y="78" width="340" height="26" as="geometry" />
        </mxCell>
        <mxCell id="AobNAXwscba2vag_p0f0-4" value="" style="line;strokeWidth=1;fillColor=none;align=left;verticalAlign=middle;spacingTop=-1;spacingLeft=3;spacingRight=3;rotatable=0;labelPosition=right;points=[];portConstraint=eastwest;" vertex="1" parent="AobNAXwscba2vag_p0f0-0">
          <mxGeometry y="104" width="340" height="8" as="geometry" />
        </mxCell>
        <mxCell id="AobNAXwscba2vag_p0f0-5" value="+ createCircle(userId, circleName)" style="text;strokeColor=none;fillColor=none;align=left;verticalAlign=top;spacingLeft=4;spacingRight=4;overflow=hidden;rotatable=0;points=[[0,0.5],[1,0.5]];portConstraint=eastwest;" vertex="1" parent="AobNAXwscba2vag_p0f0-0">
          <mxGeometry y="112" width="340" height="26" as="geometry" />
        </mxCell>
        <mxCell id="AobNAXwscba2vag_p0f0-6" value="+ joinUser(circleId, userId)" style="text;strokeColor=none;fillColor=none;align=left;verticalAlign=top;spacingLeft=4;spacingRight=4;overflow=hidden;rotatable=0;points=[[0,0.5],[1,0.5]];portConstraint=eastwest;" vertex="1" parent="AobNAXwscba2vag_p0f0-0">
          <mxGeometry y="138" width="340" height="26" as="geometry" />
        </mxCell>
        <mxCell id="AobNAXwscba2vag_p0f0-10" value="Circles" style="shape=folder;fontStyle=1;spacingTop=10;tabWidth=40;tabHeight=14;tabPosition=left;html=1;horizontal=1;verticalAlign=top;fillColor=#fff2cc;strokeColor=#d6b656;" vertex="1" parent="WIyWlLk6GJQsqaUBKTNV-1">
          <mxGeometry x="1190" y="700" width="740" height="770" as="geometry" />
        </mxCell>
        <mxCell id="AobNAXwscba2vag_p0f0-11" value="Circle" style="swimlane;fontStyle=1;align=center;verticalAlign=top;childLayout=stackLayout;horizontal=1;startSize=26;horizontalStack=0;resizeParent=1;resizeParentMax=0;resizeLast=0;collapsible=1;marginBottom=0;" vertex="1" parent="WIyWlLk6GJQsqaUBKTNV-1">
          <mxGeometry x="1290" y="749" width="247" height="216" as="geometry" />
        </mxCell>
        <mxCell id="AobNAXwscba2vag_p0f0-12" value="+ circleId : CircleId" style="text;strokeColor=none;fillColor=none;align=left;verticalAlign=top;spacingLeft=4;spacingRight=4;overflow=hidden;rotatable=0;points=[[0,0.5],[1,0.5]];portConstraint=eastwest;" vertex="1" parent="AobNAXwscba2vag_p0f0-11">
          <mxGeometry y="26" width="247" height="26" as="geometry" />
        </mxCell>
        <mxCell id="AobNAXwscba2vag_p0f0-30" value="+ name : String" style="text;strokeColor=none;fillColor=none;align=left;verticalAlign=top;spacingLeft=4;spacingRight=4;overflow=hidden;rotatable=0;points=[[0,0.5],[1,0.5]];portConstraint=eastwest;" vertex="1" parent="AobNAXwscba2vag_p0f0-11">
          <mxGeometry y="52" width="247" height="26" as="geometry" />
        </mxCell>
        <mxCell id="AobNAXwscba2vag_p0f0-31" value="+ users : List&lt;UserId&gt;" style="text;strokeColor=none;fillColor=none;align=left;verticalAlign=top;spacingLeft=4;spacingRight=4;overflow=hidden;rotatable=0;points=[[0,0.5],[1,0.5]];portConstraint=eastwest;" vertex="1" parent="AobNAXwscba2vag_p0f0-11">
          <mxGeometry y="78" width="247" height="26" as="geometry" />
        </mxCell>
        <mxCell id="AobNAXwscba2vag_p0f0-13" value="" style="line;strokeWidth=1;fillColor=none;align=left;verticalAlign=middle;spacingTop=-1;spacingLeft=3;spacingRight=3;rotatable=0;labelPosition=right;points=[];portConstraint=eastwest;" vertex="1" parent="AobNAXwscba2vag_p0f0-11">
          <mxGeometry y="104" width="247" height="8" as="geometry" />
        </mxCell>
        <mxCell id="AobNAXwscba2vag_p0f0-14" value="+ equals(Circle)Â  : Boolean" style="text;strokeColor=none;fillColor=none;align=left;verticalAlign=top;spacingLeft=4;spacingRight=4;overflow=hidden;rotatable=0;points=[[0,0.5],[1,0.5]];portConstraint=eastwest;" vertex="1" parent="AobNAXwscba2vag_p0f0-11">
          <mxGeometry y="112" width="247" height="26" as="geometry" />
        </mxCell>
        <mxCell id="AobNAXwscba2vag_p0f0-15" value="+ getHashCode() : Int" style="text;strokeColor=none;fillColor=none;align=left;verticalAlign=top;spacingLeft=4;spacingRight=4;overflow=hidden;rotatable=0;points=[[0,0.5],[1,0.5]];portConstraint=eastwest;" vertex="1" parent="AobNAXwscba2vag_p0f0-11">
          <mxGeometry y="138" width="247" height="26" as="geometry" />
        </mxCell>
        <mxCell id="AobNAXwscba2vag_p0f0-34" value="+ join(User)" style="text;strokeColor=none;fillColor=none;align=left;verticalAlign=top;spacingLeft=4;spacingRight=4;overflow=hidden;rotatable=0;points=[[0,0.5],[1,0.5]];portConstraint=eastwest;" vertex="1" parent="AobNAXwscba2vag_p0f0-11">
          <mxGeometry y="164" width="247" height="26" as="geometry" />
        </mxCell>
        <mxCell id="AobNAXwscba2vag_p0f0-35" value="+ Notify(ICiircleNotificatioon)" style="text;strokeColor=none;fillColor=none;align=left;verticalAlign=top;spacingLeft=4;spacingRight=4;overflow=hidden;rotatable=0;points=[[0,0.5],[1,0.5]];portConstraint=eastwest;" vertex="1" parent="AobNAXwscba2vag_p0f0-11">
          <mxGeometry y="190" width="247" height="26" as="geometry" />
        </mxCell>
        <mxCell id="AobNAXwscba2vag_p0f0-16" value="CircleId" style="swimlane;fontStyle=1;align=center;verticalAlign=top;childLayout=stackLayout;horizontal=1;startSize=26;horizontalStack=0;resizeParent=1;resizeParentMax=0;resizeLast=0;collapsible=1;marginBottom=0;" vertex="1" parent="WIyWlLk6GJQsqaUBKTNV-1">
          <mxGeometry x="1610" y="749" width="247" height="112" as="geometry" />
        </mxCell>
        <mxCell id="AobNAXwscba2vag_p0f0-17" value="+ id : String" style="text;strokeColor=none;fillColor=none;align=left;verticalAlign=top;spacingLeft=4;spacingRight=4;overflow=hidden;rotatable=0;points=[[0,0.5],[1,0.5]];portConstraint=eastwest;" vertex="1" parent="AobNAXwscba2vag_p0f0-16">
          <mxGeometry y="26" width="247" height="26" as="geometry" />
        </mxCell>
        <mxCell id="AobNAXwscba2vag_p0f0-18" value="" style="line;strokeWidth=1;fillColor=none;align=left;verticalAlign=middle;spacingTop=-1;spacingLeft=3;spacingRight=3;rotatable=0;labelPosition=right;points=[];portConstraint=eastwest;" vertex="1" parent="AobNAXwscba2vag_p0f0-16">
          <mxGeometry y="52" width="247" height="8" as="geometry" />
        </mxCell>
        <mxCell id="AobNAXwscba2vag_p0f0-19" value="+ equals(UserId)Â  : Boolean" style="text;strokeColor=none;fillColor=none;align=left;verticalAlign=top;spacingLeft=4;spacingRight=4;overflow=hidden;rotatable=0;points=[[0,0.5],[1,0.5]];portConstraint=eastwest;" vertex="1" parent="AobNAXwscba2vag_p0f0-16">
          <mxGeometry y="60" width="247" height="26" as="geometry" />
        </mxCell>
        <mxCell id="AobNAXwscba2vag_p0f0-20" value="+ getHashCode() : Int" style="text;strokeColor=none;fillColor=none;align=left;verticalAlign=top;spacingLeft=4;spacingRight=4;overflow=hidden;rotatable=0;points=[[0,0.5],[1,0.5]];portConstraint=eastwest;" vertex="1" parent="AobNAXwscba2vag_p0f0-16">
          <mxGeometry y="86" width="247" height="26" as="geometry" />
        </mxCell>
        <mxCell id="AobNAXwscba2vag_p0f0-21" value="ICircleFactory" style="swimlane;fontStyle=1;align=center;verticalAlign=top;childLayout=stackLayout;horizontal=1;startSize=26;horizontalStack=0;resizeParent=1;resizeParentMax=0;resizeLast=0;collapsible=1;marginBottom=0;fillColor=#f8cecc;strokeColor=#b85450;" vertex="1" parent="WIyWlLk6GJQsqaUBKTNV-1">
          <mxGeometry x="1630" y="1020" width="247" height="60" as="geometry" />
        </mxCell>
        <mxCell id="AobNAXwscba2vag_p0f0-22" value="" style="line;strokeWidth=1;fillColor=none;align=left;verticalAlign=middle;spacingTop=-1;spacingLeft=3;spacingRight=3;rotatable=0;labelPosition=right;points=[];portConstraint=eastwest;" vertex="1" parent="AobNAXwscba2vag_p0f0-21">
          <mxGeometry y="26" width="247" height="8" as="geometry" />
        </mxCell>
        <mxCell id="AobNAXwscba2vag_p0f0-23" value="+ create(UserId, name) : Circle" style="text;strokeColor=none;fillColor=none;align=left;verticalAlign=top;spacingLeft=4;spacingRight=4;overflow=hidden;rotatable=0;points=[[0,0.5],[1,0.5]];portConstraint=eastwest;" vertex="1" parent="AobNAXwscba2vag_p0f0-21">
          <mxGeometry y="34" width="247" height="26" as="geometry" />
        </mxCell>
        <mxCell id="AobNAXwscba2vag_p0f0-24" value="ICircleRepository" style="swimlane;fontStyle=1;align=center;verticalAlign=top;childLayout=stackLayout;horizontal=1;startSize=26;horizontalStack=0;resizeParent=1;resizeParentMax=0;resizeLast=0;collapsible=1;marginBottom=0;fillColor=#f8cecc;strokeColor=#b85450;" vertex="1" parent="WIyWlLk6GJQsqaUBKTNV-1">
          <mxGeometry x="1630" y="1190" width="247" height="86" as="geometry" />
        </mxCell>
        <mxCell id="AobNAXwscba2vag_p0f0-25" value="" style="line;strokeWidth=1;fillColor=none;align=left;verticalAlign=middle;spacingTop=-1;spacingLeft=3;spacingRight=3;rotatable=0;labelPosition=right;points=[];portConstraint=eastwest;" vertex="1" parent="AobNAXwscba2vag_p0f0-24">
          <mxGeometry y="26" width="247" height="8" as="geometry" />
        </mxCell>
        <mxCell id="AobNAXwscba2vag_p0f0-26" value="+ find(CircleId) : Circle" style="text;strokeColor=none;fillColor=none;align=left;verticalAlign=top;spacingLeft=4;spacingRight=4;overflow=hidden;rotatable=0;points=[[0,0.5],[1,0.5]];portConstraint=eastwest;" vertex="1" parent="AobNAXwscba2vag_p0f0-24">
          <mxGeometry y="34" width="247" height="26" as="geometry" />
        </mxCell>
        <mxCell id="AobNAXwscba2vag_p0f0-46" value="+ save(CircleId)" style="text;strokeColor=none;fillColor=none;align=left;verticalAlign=top;spacingLeft=4;spacingRight=4;overflow=hidden;rotatable=0;points=[[0,0.5],[1,0.5]];portConstraint=eastwest;" vertex="1" parent="AobNAXwscba2vag_p0f0-24">
          <mxGeometry y="60" width="247" height="26" as="geometry" />
        </mxCell>
        <mxCell id="AobNAXwscba2vag_p0f0-27" value="ICircleNotification" style="swimlane;fontStyle=1;align=center;verticalAlign=top;childLayout=stackLayout;horizontal=1;startSize=26;horizontalStack=0;resizeParent=1;resizeParentMax=0;resizeLast=0;collapsible=1;marginBottom=0;fillColor=#f8cecc;strokeColor=#b85450;" vertex="1" parent="WIyWlLk6GJQsqaUBKTNV-1">
          <mxGeometry x="1290" y="1030" width="247" height="112" as="geometry" />
        </mxCell>
        <mxCell id="AobNAXwscba2vag_p0f0-28" value="" style="line;strokeWidth=1;fillColor=none;align=left;verticalAlign=middle;spacingTop=-1;spacingLeft=3;spacingRight=3;rotatable=0;labelPosition=right;points=[];portConstraint=eastwest;" vertex="1" parent="AobNAXwscba2vag_p0f0-27">
          <mxGeometry y="26" width="247" height="8" as="geometry" />
        </mxCell>
        <mxCell id="AobNAXwscba2vag_p0f0-29" value="+ id(CircleId)" style="text;strokeColor=none;fillColor=none;align=left;verticalAlign=top;spacingLeft=4;spacingRight=4;overflow=hidden;rotatable=0;points=[[0,0.5],[1,0.5]];portConstraint=eastwest;" vertex="1" parent="AobNAXwscba2vag_p0f0-27">
          <mxGeometry y="34" width="247" height="26" as="geometry" />
        </mxCell>
        <mxCell id="AobNAXwscba2vag_p0f0-44" value="+ name(name)" style="text;strokeColor=none;fillColor=none;align=left;verticalAlign=top;spacingLeft=4;spacingRight=4;overflow=hidden;rotatable=0;points=[[0,0.5],[1,0.5]];portConstraint=eastwest;" vertex="1" parent="AobNAXwscba2vag_p0f0-27">
          <mxGeometry y="60" width="247" height="26" as="geometry" />
        </mxCell>
        <mxCell id="AobNAXwscba2vag_p0f0-45" value="+ users(List&lt;UserId&gt;)" style="text;strokeColor=none;fillColor=none;align=left;verticalAlign=top;spacingLeft=4;spacingRight=4;overflow=hidden;rotatable=0;points=[[0,0.5],[1,0.5]];portConstraint=eastwest;" vertex="1" parent="AobNAXwscba2vag_p0f0-27">
          <mxGeometry y="86" width="247" height="26" as="geometry" />
        </mxCell>
        <mxCell id="AobNAXwscba2vag_p0f0-32" value="" style="endArrow=open;html=1;endSize=12;startArrow=diamondThin;startSize=14;startFill=1;align=left;verticalAlign=bottom;exitX=0;exitY=0.5;exitDx=0;exitDy=0;entryX=1.004;entryY=-0.308;entryDx=0;entryDy=0;entryPerimeter=0;" edge="1" parent="WIyWlLk6GJQsqaUBKTNV-1" source="AobNAXwscba2vag_p0f0-31" target="LSt1L3LTANjzH6nGVOF3-15">
          <mxGeometry x="-0.7342" y="15" relative="1" as="geometry">
            <mxPoint x="763.0000000000005" y="789" as="sourcePoint" />
            <mxPoint x="854.2709999999997" y="768.2560000000003" as="targetPoint" />
            <mxPoint as="offset" />
          </mxGeometry>
        </mxCell>
        <mxCell id="AobNAXwscba2vag_p0f0-33" value="" style="endArrow=open;html=1;endSize=12;startArrow=diamondThin;startSize=14;startFill=1;align=left;verticalAlign=bottom;entryX=0.003;entryY=0.155;entryDx=0;entryDy=0;entryPerimeter=0;exitX=1;exitY=0.5;exitDx=0;exitDy=0;" edge="1" parent="WIyWlLk6GJQsqaUBKTNV-1" source="AobNAXwscba2vag_p0f0-12" target="AobNAXwscba2vag_p0f0-16">
          <mxGeometry x="-0.7342" y="15" relative="1" as="geometry">
            <mxPoint x="1537" y="766" as="sourcePoint" />
            <mxPoint x="1103.9880000000003" y="767.9919999999997" as="targetPoint" />
            <mxPoint as="offset" />
          </mxGeometry>
        </mxCell>
        <mxCell id="AobNAXwscba2vag_p0f0-37" value="" style="endArrow=open;html=1;endSize=12;startArrow=diamondThin;startSize=14;startFill=1;align=left;verticalAlign=bottom;edgeStyle=orthogonalEdgeStyle;" edge="1" parent="WIyWlLk6GJQsqaUBKTNV-1">
          <mxGeometry x="-0.7342" y="15" relative="1" as="geometry">
            <mxPoint x="-360" y="780" as="sourcePoint" />
            <mxPoint x="502" y="1390" as="targetPoint" />
            <mxPoint as="offset" />
            <Array as="points">
              <mxPoint x="-270" y="780" />
              <mxPoint x="-270" y="1390" />
            </Array>
          </mxGeometry>
        </mxCell>
        <mxCell id="AobNAXwscba2vag_p0f0-39" value="" style="endArrow=open;html=1;endSize=12;startArrow=diamondThin;startSize=14;startFill=1;align=left;verticalAlign=bottom;exitX=1;exitY=0.5;exitDx=0;exitDy=0;entryX=0.5;entryY=0;entryDx=0;entryDy=0;edgeStyle=orthogonalEdgeStyle;" edge="1" parent="WIyWlLk6GJQsqaUBKTNV-1" source="rP0kursKjQXelINlSOQW-0" target="LSt1L3LTANjzH6nGVOF3-77">
          <mxGeometry x="-0.7342" y="15" relative="1" as="geometry">
            <mxPoint x="-350" y="790.0000000000002" as="sourcePoint" />
            <mxPoint x="512.2500000000005" y="1312.9560000000001" as="targetPoint" />
            <mxPoint as="offset" />
            <Array as="points">
              <mxPoint x="-250" y="802" />
              <mxPoint x="-250" y="1250" />
              <mxPoint x="970" y="1250" />
            </Array>
          </mxGeometry>
        </mxCell>
        <mxCell id="AobNAXwscba2vag_p0f0-40" value="" style="endArrow=open;html=1;endSize=12;startArrow=diamondThin;startSize=14;startFill=1;align=left;verticalAlign=bottom;exitX=1;exitY=0.5;exitDx=0;exitDy=0;entryX=0;entryY=0.25;entryDx=0;entryDy=0;edgeStyle=orthogonalEdgeStyle;" edge="1" parent="WIyWlLk6GJQsqaUBKTNV-1" source="LSt1L3LTANjzH6nGVOF3-71" target="LSt1L3LTANjzH6nGVOF3-28">
          <mxGeometry x="-0.7342" y="15" relative="1" as="geometry">
            <mxPoint x="-350" y="811.9999999999998" as="sourcePoint" />
            <mxPoint x="856" y="1315" as="targetPoint" />
            <mxPoint as="offset" />
            <Array as="points">
              <mxPoint x="-240" y="828" />
              <mxPoint x="-240" y="1146" />
            </Array>
          </mxGeometry>
        </mxCell>
        <mxCell id="AobNAXwscba2vag_p0f0-41" value="" style="endArrow=open;html=1;endSize=12;startArrow=diamondThin;startSize=14;startFill=1;align=left;verticalAlign=bottom;entryX=0.5;entryY=0;entryDx=0;entryDy=0;" edge="1" parent="WIyWlLk6GJQsqaUBKTNV-1" target="LSt1L3LTANjzH6nGVOF3-39">
          <mxGeometry x="-0.7342" y="15" relative="1" as="geometry">
            <mxPoint x="628" y="1210" as="sourcePoint" />
            <mxPoint x="512.2500000000005" y="1312.9560000000001" as="targetPoint" />
            <mxPoint as="offset" />
          </mxGeometry>
        </mxCell>
        <mxCell id="AobNAXwscba2vag_p0f0-43" value="Use" style="endArrow=open;endSize=12;dashed=1;html=1;entryX=0.5;entryY=0;entryDx=0;entryDy=0;" edge="1" parent="WIyWlLk6GJQsqaUBKTNV-1" source="AobNAXwscba2vag_p0f0-35" target="AobNAXwscba2vag_p0f0-27">
          <mxGeometry width="160" relative="1" as="geometry">
            <mxPoint x="-509.46000000000004" y="994.6680000000001" as="sourcePoint" />
            <mxPoint x="-397" y="1100" as="targetPoint" />
          </mxGeometry>
        </mxCell>
        <mxCell id="AobNAXwscba2vag_p0f0-48" value="" style="endArrow=open;html=1;endSize=12;startArrow=diamondThin;startSize=14;startFill=1;align=left;verticalAlign=bottom;exitX=1;exitY=0.5;exitDx=0;exitDy=0;entryX=0;entryY=0.25;entryDx=0;entryDy=0;edgeStyle=orthogonalEdgeStyle;" edge="1" parent="WIyWlLk6GJQsqaUBKTNV-1" source="AobNAXwscba2vag_p0f0-2" target="AobNAXwscba2vag_p0f0-21">
          <mxGeometry x="-0.7342" y="15" relative="1" as="geometry">
            <mxPoint x="-350" y="811.9999999999998" as="sourcePoint" />
            <mxPoint x="856" y="1315" as="targetPoint" />
            <mxPoint as="offset" />
            <Array as="points">
              <mxPoint x="310" y="779" />
              <mxPoint x="310" y="660" />
              <mxPoint x="1590" y="660" />
              <mxPoint x="1590" y="1035" />
            </Array>
          </mxGeometry>
        </mxCell>
        <mxCell id="AobNAXwscba2vag_p0f0-49" value="" style="endArrow=open;html=1;endSize=12;startArrow=diamondThin;startSize=14;startFill=1;align=left;verticalAlign=bottom;exitX=1;exitY=0.5;exitDx=0;exitDy=0;entryX=0;entryY=0.25;entryDx=0;entryDy=0;edgeStyle=orthogonalEdgeStyle;" edge="1" parent="WIyWlLk6GJQsqaUBKTNV-1" source="AobNAXwscba2vag_p0f0-1" target="AobNAXwscba2vag_p0f0-24">
          <mxGeometry x="-0.7342" y="15" relative="1" as="geometry">
            <mxPoint x="120" y="789" as="sourcePoint" />
            <mxPoint x="1639.999999999999" y="1045" as="targetPoint" />
            <mxPoint as="offset" />
            <Array as="points">
              <mxPoint x="350" y="805" />
              <mxPoint x="350" y="690" />
              <mxPoint x="1570" y="690" />
              <mxPoint x="1570" y="1212" />
            </Array>
          </mxGeometry>
        </mxCell>
        <mxCell id="AobNAXwscba2vag_p0f0-50" value="" style="endArrow=open;html=1;endSize=12;startArrow=diamondThin;startSize=14;startFill=1;align=left;verticalAlign=bottom;exitX=1;exitY=0.5;exitDx=0;exitDy=0;edgeStyle=orthogonalEdgeStyle;entryX=0.011;entryY=0.12;entryDx=0;entryDy=0;entryPerimeter=0;" edge="1" parent="WIyWlLk6GJQsqaUBKTNV-1" source="AobNAXwscba2vag_p0f0-3" target="LSt1L3LTANjzH6nGVOF3-39">
          <mxGeometry x="-0.7342" y="15" relative="1" as="geometry">
            <mxPoint x="120" y="815" as="sourcePoint" />
            <mxPoint x="500" y="1310" as="targetPoint" />
            <mxPoint as="offset" />
            <Array as="points">
              <mxPoint x="350" y="831" />
              <mxPoint x="350" y="1310" />
            </Array>
          </mxGeometry>
        </mxCell>
        <mxCell id="AobNAXwscba2vag_p0f0-51" value="Circles" style="shape=folder;fontStyle=1;spacingTop=10;tabWidth=40;tabHeight=14;tabPosition=left;html=1;horizontal=1;verticalAlign=top;fillColor=#fff2cc;strokeColor=#d6b656;" vertex="1" parent="WIyWlLk6GJQsqaUBKTNV-1">
          <mxGeometry x="1190" y="1614" width="740" height="276" as="geometry" />
        </mxCell>
        <mxCell id="AobNAXwscba2vag_p0f0-52" value="CircleDataModel" style="swimlane;fontStyle=1;align=center;verticalAlign=top;childLayout=stackLayout;horizontal=1;startSize=26;horizontalStack=0;resizeParent=1;resizeParentMax=0;resizeLast=0;collapsible=1;marginBottom=0;" vertex="1" parent="WIyWlLk6GJQsqaUBKTNV-1">
          <mxGeometry x="1637" y="1768" width="247" height="112" as="geometry" />
        </mxCell>
        <mxCell id="AobNAXwscba2vag_p0f0-54" value="+ id : String&#xa;" style="text;strokeColor=none;fillColor=none;align=left;verticalAlign=top;spacingLeft=4;spacingRight=4;overflow=hidden;rotatable=0;points=[[0,0.5],[1,0.5]];portConstraint=eastwest;" vertex="1" parent="AobNAXwscba2vag_p0f0-52">
          <mxGeometry y="26" width="247" height="26" as="geometry" />
        </mxCell>
        <mxCell id="AobNAXwscba2vag_p0f0-55" value="+ name : String" style="text;strokeColor=none;fillColor=none;align=left;verticalAlign=top;spacingLeft=4;spacingRight=4;overflow=hidden;rotatable=0;points=[[0,0.5],[1,0.5]];portConstraint=eastwest;" vertex="1" parent="AobNAXwscba2vag_p0f0-52">
          <mxGeometry y="52" width="247" height="26" as="geometry" />
        </mxCell>
        <mxCell id="AobNAXwscba2vag_p0f0-56" value="+ userIds : List&lt;String&gt;" style="text;strokeColor=none;fillColor=none;align=left;verticalAlign=top;spacingLeft=4;spacingRight=4;overflow=hidden;rotatable=0;points=[[0,0.5],[1,0.5]];portConstraint=eastwest;" vertex="1" parent="AobNAXwscba2vag_p0f0-52">
          <mxGeometry y="78" width="247" height="26" as="geometry" />
        </mxCell>
        <mxCell id="AobNAXwscba2vag_p0f0-53" value="" style="line;strokeWidth=1;fillColor=none;align=left;verticalAlign=middle;spacingTop=-1;spacingLeft=3;spacingRight=3;rotatable=0;labelPosition=right;points=[];portConstraint=eastwest;" vertex="1" parent="AobNAXwscba2vag_p0f0-52">
          <mxGeometry y="104" width="247" height="8" as="geometry" />
        </mxCell>
        <mxCell id="AobNAXwscba2vag_p0f0-57" value="CircleNotification" style="swimlane;fontStyle=1;align=center;verticalAlign=top;childLayout=stackLayout;horizontal=1;startSize=26;horizontalStack=0;resizeParent=1;resizeParentMax=0;resizeLast=0;collapsible=1;marginBottom=0;" vertex="1" parent="WIyWlLk6GJQsqaUBKTNV-1">
          <mxGeometry x="1290" y="1656.5" width="247" height="190" as="geometry" />
        </mxCell>
        <mxCell id="AobNAXwscba2vag_p0f0-58" value="+ id : String&#xa;" style="text;strokeColor=none;fillColor=none;align=left;verticalAlign=top;spacingLeft=4;spacingRight=4;overflow=hidden;rotatable=0;points=[[0,0.5],[1,0.5]];portConstraint=eastwest;" vertex="1" parent="AobNAXwscba2vag_p0f0-57">
          <mxGeometry y="26" width="247" height="26" as="geometry" />
        </mxCell>
        <mxCell id="AobNAXwscba2vag_p0f0-59" value="+ name : String" style="text;strokeColor=none;fillColor=none;align=left;verticalAlign=top;spacingLeft=4;spacingRight=4;overflow=hidden;rotatable=0;points=[[0,0.5],[1,0.5]];portConstraint=eastwest;" vertex="1" parent="AobNAXwscba2vag_p0f0-57">
          <mxGeometry y="52" width="247" height="26" as="geometry" />
        </mxCell>
        <mxCell id="AobNAXwscba2vag_p0f0-60" value="+ userIds : List&lt;String&gt;" style="text;strokeColor=none;fillColor=none;align=left;verticalAlign=top;spacingLeft=4;spacingRight=4;overflow=hidden;rotatable=0;points=[[0,0.5],[1,0.5]];portConstraint=eastwest;" vertex="1" parent="AobNAXwscba2vag_p0f0-57">
          <mxGeometry y="78" width="247" height="26" as="geometry" />
        </mxCell>
        <mxCell id="AobNAXwscba2vag_p0f0-61" value="" style="line;strokeWidth=1;fillColor=none;align=left;verticalAlign=middle;spacingTop=-1;spacingLeft=3;spacingRight=3;rotatable=0;labelPosition=right;points=[];portConstraint=eastwest;" vertex="1" parent="AobNAXwscba2vag_p0f0-57">
          <mxGeometry y="104" width="247" height="8" as="geometry" />
        </mxCell>
        <mxCell id="AobNAXwscba2vag_p0f0-63" value="+ id(CircleId)" style="text;strokeColor=none;fillColor=none;align=left;verticalAlign=top;spacingLeft=4;spacingRight=4;overflow=hidden;rotatable=0;points=[[0,0.5],[1,0.5]];portConstraint=eastwest;" vertex="1" parent="AobNAXwscba2vag_p0f0-57">
          <mxGeometry y="112" width="247" height="26" as="geometry" />
        </mxCell>
        <mxCell id="AobNAXwscba2vag_p0f0-64" value="+ name(name)" style="text;strokeColor=none;fillColor=none;align=left;verticalAlign=top;spacingLeft=4;spacingRight=4;overflow=hidden;rotatable=0;points=[[0,0.5],[1,0.5]];portConstraint=eastwest;" vertex="1" parent="AobNAXwscba2vag_p0f0-57">
          <mxGeometry y="138" width="247" height="26" as="geometry" />
        </mxCell>
        <mxCell id="AobNAXwscba2vag_p0f0-65" value="+ users(List&lt;UserId&gt;)" style="text;strokeColor=none;fillColor=none;align=left;verticalAlign=top;spacingLeft=4;spacingRight=4;overflow=hidden;rotatable=0;points=[[0,0.5],[1,0.5]];portConstraint=eastwest;" vertex="1" parent="AobNAXwscba2vag_p0f0-57">
          <mxGeometry y="164" width="247" height="26" as="geometry" />
        </mxCell>
        <mxCell id="AobNAXwscba2vag_p0f0-62" value="" style="endArrow=block;dashed=1;endFill=0;endSize=12;html=1;exitX=0.5;exitY=0;exitDx=0;exitDy=0;" edge="1" parent="WIyWlLk6GJQsqaUBKTNV-1" source="AobNAXwscba2vag_p0f0-57">
          <mxGeometry width="160" relative="1" as="geometry">
            <mxPoint x="979.4999999999995" y="1674" as="sourcePoint" />
            <mxPoint x="1416" y="1141" as="targetPoint" />
          </mxGeometry>
        </mxCell>
        <mxCell id="AobNAXwscba2vag_p0f0-66" value="CircleRepositoory" style="swimlane;fontStyle=1;align=center;verticalAlign=top;childLayout=stackLayout;horizontal=1;startSize=26;horizontalStack=0;resizeParent=1;resizeParentMax=0;resizeLast=0;collapsible=1;marginBottom=0;" vertex="1" parent="WIyWlLk6GJQsqaUBKTNV-1">
          <mxGeometry x="1637" y="1656.5" width="247" height="86" as="geometry" />
        </mxCell>
        <mxCell id="AobNAXwscba2vag_p0f0-70" value="" style="line;strokeWidth=1;fillColor=none;align=left;verticalAlign=middle;spacingTop=-1;spacingLeft=3;spacingRight=3;rotatable=0;labelPosition=right;points=[];portConstraint=eastwest;" vertex="1" parent="AobNAXwscba2vag_p0f0-66">
          <mxGeometry y="26" width="247" height="8" as="geometry" />
        </mxCell>
        <mxCell id="AobNAXwscba2vag_p0f0-72" value="+ save(CircleId)" style="text;strokeColor=none;fillColor=none;align=left;verticalAlign=top;spacingLeft=4;spacingRight=4;overflow=hidden;rotatable=0;points=[[0,0.5],[1,0.5]];portConstraint=eastwest;" vertex="1" parent="AobNAXwscba2vag_p0f0-66">
          <mxGeometry y="34" width="247" height="26" as="geometry" />
        </mxCell>
        <mxCell id="AobNAXwscba2vag_p0f0-71" value="+ find(CircleId) : Circle" style="text;strokeColor=none;fillColor=none;align=left;verticalAlign=top;spacingLeft=4;spacingRight=4;overflow=hidden;rotatable=0;points=[[0,0.5],[1,0.5]];portConstraint=eastwest;" vertex="1" parent="AobNAXwscba2vag_p0f0-66">
          <mxGeometry y="60" width="247" height="26" as="geometry" />
        </mxCell>
        <mxCell id="AobNAXwscba2vag_p0f0-73" value="" style="endArrow=block;dashed=1;endFill=0;endSize=12;html=1;exitX=0.5;exitY=0;exitDx=0;exitDy=0;" edge="1" parent="WIyWlLk6GJQsqaUBKTNV-1" source="AobNAXwscba2vag_p0f0-66">
          <mxGeometry width="160" relative="1" as="geometry">
            <mxPoint x="1623.5" y="1674" as="sourcePoint" />
            <mxPoint x="1758" y="1280" as="targetPoint" />
          </mxGeometry>
        </mxCell>
      </root>
    </mxGraphModel>
  </diagram>
</mxfile>
